<svg xmlns="http://www.w3.org/2000/svg" viewBox="0 0 176.7 207.92"><defs><style>.cls-1{fill:#fff;}.cls-2{fill:#1a1b1f;}</style></defs><title>Logo-full</title><g id="Logo-full"><path class="cls-1" d="M29.37,2.86H92.25L174,67.15V96.57H154l-.16,48.2s-2.35,24-17.4,32.93-22.94,13.86-47.89,24.22-67.16-3.57-85.12-26l31.36-31.7c13.85,25.73,45.68,16.69,45.53-5.49C80.17,114.15,80,80.14,80,80.14L30,66.74Z"/><path id="black" class="cls-2" d="M176.7,98.24V65.94a1.72,1.72,0,0,0-.66-1.35l-80.25-63L94.47.5A2.41,2.41,0,0,0,93,0H28.4a1.58,1.58,0,0,0-1.58,1.58V67.76A1.57,1.57,0,0,0,28,69.28l48.83,13v57c0,.61,0,1.21-.08,1.86-.82,9.29-7.86,15.57-17.5,15.64H59c-7.78,0-15.6-6.36-21.37-13.55l-1.23-1.52a1.57,1.57,0,0,0-2.32-.13L.48,174.42a1.57,1.57,0,0,0-.18,2.06l.73,1c13.11,17.93,39.72,30.45,64.7,30.45a73.5,73.5,0,0,0,32.4-7.09h0s25.71-12,34.1-16.39c16.09-8.4,24.88-24.94,24.91-43.89V99.82h18A1.58,1.58,0,0,0,176.7,98.24ZM32.82,6h57V63h-57ZM7.46,176l27.46-26.8c5.82,8.18,15.28,13.64,24.14,13.64h.25c12.7-.12,22.32-8.79,23.4-21.11.08-.83.11-1.61.11-2.39V83.42l43.72,6v55c0,16.38-6.09,31.11-17.13,41.49a55.35,55.35,0,0,1-12,8.51,66.8,66.8,0,0,1-31.73,7.48C43.88,201.92,19.88,191.13,7.46,176Zm121.9,3.18-10,4.81.28-.36.61-.81c.38-.51.76-1,1.12-1.55q.31-.44.6-.87c.36-.53.71-1.08,1.06-1.62l.52-.83c.4-.68.8-1.36,1.18-2.05l.26-.46c.46-.85.9-1.71,1.32-2.59.11-.23.21-.47.32-.71.3-.65.59-1.29.87-2l.39-1q.36-.9.69-1.8c.13-.34.25-.67.37-1,.21-.63.42-1.26.62-1.9.09-.31.19-.61.29-.92.24-.84.47-1.69.69-2.54,0-.11.06-.22.08-.32.24-1,.45-1.94.65-2.92l.15-.88q.19-1,.36-2.1l.15-1.09c.09-.66.17-1.31.24-2,0-.38.07-.75.11-1.12.06-.7.11-1.4.15-2.11,0-.33,0-.65.05-1,0-1,.08-2.07.08-3.11V77.91l-36.75-14V9.17L170.7,68V92.46L151.15,85v55.48C151.12,157.24,143.18,171.33,129.36,179.16Z"/></g></svg>